<?xml version="1.0" encoding="utf-8"?>
<!-- Generator: Adobe Illustrator 25.0.0, SVG Export Plug-In . SVG Version: 6.00 Build 0)  -->
<svg version="1.1" id="Ebene_1" xmlns="http://www.w3.org/2000/svg" xmlns:xlink="http://www.w3.org/1999/xlink" x="0px" y="0px"
	 viewBox="0 0 2000 2000" style="enable-background:new 0 0 2000 2000;" xml:space="preserve">
<style type="text/css">
	.st0{fill:#1D1D1B;}
</style>
<g>
	<path class="st0" d="M1503.34,113.48c55.29,0,103.83,41.15,111.41,97.38l163.4,1211.64c8.26,61.26-35.1,118.15-96.37,126.41
		l-458.81,61.88c-8.23,1.11-15.25,6.53-18.4,14.21l-82.09,199.97c-3.86,9.4-12.67,14.42-21.57,14.42c-6.78,0-13.61-2.92-18.34-9.04
		l-132.13-171.08c-4.44-5.74-11.26-9.04-18.4-9.04c-1.03,0-2.07,0.07-3.11,0.21l-458.81,61.88c-5.04,0.68-10.05,1.01-15,1.01
		c-55.29,0-103.83-41.15-111.41-97.37L180.34,404.3c-8.26-61.26,35.1-118.15,96.37-126.41l1211.64-163.4
		C1493.38,113.81,1498.39,113.48,1503.34,113.48 M1503.34,59.01L1503.34,59.01L1503.34,59.01l0,54.46L1503.34,59.01
		c-7.41,0-14.91,0.5-22.28,1.5L269.42,223.92c-22.26,3-43.32,10.33-62.59,21.77c-18.53,11-34.58,25.31-47.7,42.52
		c-13.12,17.21-22.67,36.48-28.36,57.26c-5.93,21.61-7.41,43.86-4.41,66.12l163.4,1211.64c5.42,40.19,25.36,77.01,56.13,103.66
		c30.45,26.37,69.25,40.9,109.25,40.9c7.41,0,14.91-0.5,22.28-1.5l440.95-59.47l121.11,156.81c14.83,19.2,37.23,30.22,61.44,30.22
		c31.69,0,59.93-18.92,71.95-48.21l75.24-183.29l440.95-59.47c22.26-3,43.32-10.33,62.59-21.77c18.53-11,34.58-25.31,47.7-42.52
		c13.12-17.21,22.67-36.48,28.36-57.26c5.93-21.61,7.41-43.86,4.41-66.12l-163.4-1211.64c-5.42-40.19-25.35-77-56.13-103.66
		C1582.14,73.54,1543.34,59.01,1503.34,59.01L1503.34,59.01z"/>
</g>
</svg>
